<svg width="67" height="60" viewBox="0 0 67 60" fill="none" xmlns="http://www.w3.org/2000/svg">
<path fill-rule="evenodd" clip-rule="evenodd" d="M31.0439 28.825C32.5618 26.9077 32.3924 24.8884 31.3399 21.256C29.2583 14.0722 30.0872 10.1347 37.2632 5.47303L40.7656 3.19775L41.6128 7.00984C42.513 11.0612 43.9915 13.5669 47.7877 18.3867C47.9386 18.5782 47.9386 18.5782 48.0901 18.7705C53.5583 25.7137 55.5556 29.8992 55.5556 37.5001C55.5556 46.721 45.1982 55.0001 33.3334 55.0001C21.4678 55.0001 11.1111 46.7221 11.1111 37.5001C11.1111 37.3278 11.1113 37.333 11.0789 36.5713C10.8279 30.6796 12.0384 26.0685 16.9363 21.0898C17.9712 20.0378 19.1475 19.0268 20.4712 18.0594L23.3934 15.9238L24.7991 19.0666C25.8378 21.3888 27.0547 23.2143 28.4295 24.5539C29.5939 25.6885 30.4576 27.1153 31.0439 28.825ZM21.0958 24.4043C17.3254 28.237 16.4289 31.6516 16.6304 36.3797C16.6679 37.2599 16.6667 37.2289 16.6667 37.5001C16.6667 43.8198 24.3989 50.0001 33.3334 50.0001C42.2671 50.0001 50 43.8188 50 37.5001C50 31.1456 48.4215 27.8377 43.5576 21.6619C43.4069 21.4706 43.4069 21.4706 43.2554 21.2783C40.3015 17.5279 38.5408 14.9191 37.376 12.0014C35.4736 14.0531 35.5854 16.0936 36.7157 19.9943C38.7973 27.1781 37.9684 31.1156 30.7924 35.7772L26.7008 38.4353L26.3941 33.9021C26.1981 31.0058 25.4697 29.039 24.3483 27.9464C23.2405 26.8668 22.2402 25.603 21.3432 24.1571C21.2596 24.2393 21.1771 24.3217 21.0958 24.4043Z" fill="black"/>
</svg>
