<svg width="50" height="45" viewBox="0 0 50 45" fill="none" xmlns="http://www.w3.org/2000/svg">
<path fill-rule="evenodd" clip-rule="evenodd" d="M27.0834 35.625V33.6171C31.2156 33.0851 34.7891 30.994 37.0445 28.0272C42.6988 27.326 45.8334 22.9178 45.8334 16.875V11.25C45.8334 9.17893 43.9679 7.5 41.6667 7.5H39.0259C38.3055 6.37912 36.9589 5.625 35.4167 5.625H14.5834C13.0411 5.625 11.6945 6.37912 10.9741 7.5H8.33335C6.03217 7.5 4.16669 9.17893 4.16669 11.25V16.875C4.16669 22.9178 7.30124 27.326 12.9556 28.0272C15.2109 30.994 18.7844 33.0851 22.9167 33.6171V35.625H20.8334C18.5322 35.625 16.6667 37.3039 16.6667 39.375H33.3334C33.3334 37.3039 31.4679 35.625 29.1667 35.625H27.0834ZM8.33335 11.25H10.4167V20.625C10.4167 21.4833 10.5082 22.3223 10.683 23.1347C9.14643 21.89 8.33335 19.7461 8.33335 16.875V11.25ZM39.5834 11.25V20.625C39.5834 21.4833 39.4918 22.3223 39.317 23.1347C40.8536 21.89 41.6667 19.7461 41.6667 16.875V11.25H39.5834ZM14.5834 20.625V9.375H35.4167V20.625C35.4167 25.8027 30.753 30 25 30C19.2471 30 14.5834 25.8027 14.5834 20.625Z" fill="black"/>
</svg>
