<svg width="67" height="60" viewBox="0 0 67 60" fill="none" xmlns="http://www.w3.org/2000/svg">
<path fill-rule="evenodd" clip-rule="evenodd" d="M33.3334 58.3189L35.1604 56.8831C50.5242 44.8093 58.3334 34.2669 58.3334 25C58.3334 11.8767 46.9527 2.5 33.3334 2.5C19.7141 2.5 8.33337 11.8767 8.33337 25C8.33337 34.2669 16.1426 44.8093 31.5064 56.8831L33.3334 58.3189ZM33.3334 51.6585C20.2962 41.0839 13.8889 32.1231 13.8889 25C13.8889 14.7415 22.6781 7.5 33.3334 7.5C43.9886 7.5 52.7778 14.7415 52.7778 25C52.7778 32.1231 46.3706 41.0839 33.3334 51.6585ZM33.3334 12.5C41.004 12.5 47.2223 18.0964 47.2223 25C47.2223 31.9036 41.004 37.5 33.3334 37.5C25.6628 37.5 19.4445 31.9036 19.4445 25C19.4445 18.0964 25.6628 12.5 33.3334 12.5ZM25 25C25 20.8579 28.731 17.5 33.3334 17.5C37.9357 17.5 41.6667 20.8579 41.6667 25C41.6667 29.1421 37.9357 32.5 33.3334 32.5C28.731 32.5 25 29.1421 25 25Z" fill="black"/>
</svg>
