<svg width="27" height="24" viewBox="0 0 27 24" fill="none" xmlns="http://www.w3.org/2000/svg">
<path fill-rule="evenodd" clip-rule="evenodd" d="M4.44445 2H22.2222C23.4495 2 24.4445 2.89543 24.4445 4V20C24.4445 21.1046 23.4495 22 22.2222 22H4.44445C3.21715 22 2.22223 21.1046 2.22223 20V4C2.22223 2.89543 3.21715 2 4.44445 2ZM4.44445 4V20H22.2222V4H4.44445ZM12.3701 12.0044H14.4445V18H16.6667V12.0044H18.8694V10.0044H16.6667V9C16.6667 8.44771 17.1641 8 17.7778 8H18.8889V6H17.7778C15.9368 6 14.4445 7.34315 14.4445 9V10.0044H12.3701V12.0044Z" fill="black"/>
</svg>
