<svg width="30" height="24" viewBox="0 0 30 24" fill="none" xmlns="http://www.w3.org/2000/svg">
<path fill-rule="evenodd" clip-rule="evenodd" d="M4.93837 2H24.6915C26.0551 2 27.1606 2.89543 27.1606 4V20C27.1606 21.1046 26.0551 22 24.6915 22H4.93837C3.57471 22 2.46924 21.1046 2.46924 20V4C2.46924 2.89543 3.57471 2 4.93837 2ZM4.93837 4V20H24.6915V4H4.93837ZM13.7446 12.0044H16.0495V18H18.5186V12.0044H20.9661V10.0044H18.5186V9C18.5186 8.44772 19.0714 8 19.7532 8H20.9878V6H19.7532C17.7077 6 16.0495 7.34315 16.0495 9V10.0044H13.7446V12.0044Z" fill="black"/>
</svg>
