<svg width="30" height="24" viewBox="0 0 30 24" fill="none" xmlns="http://www.w3.org/2000/svg">
<path fill-rule="evenodd" clip-rule="evenodd" d="M19.7532 2H9.87665C5.78565 2 2.46924 4.68629 2.46924 8V16C2.46924 19.3137 5.78565 22 9.87665 22H19.7532C23.8442 22 27.1606 19.3137 27.1606 16V8C27.1606 4.68629 23.8442 2 19.7532 2ZM4.93837 8C4.93837 5.79086 7.14931 4 9.87665 4H19.7532C22.4805 4 24.6915 5.79086 24.6915 8V16C24.6915 18.2091 22.4805 20 19.7532 20H9.87665C7.14931 20 4.93837 18.2091 4.93837 16V8ZM14.8149 17C11.4058 17 8.64208 14.7614 8.64208 12C8.64208 9.23858 11.4058 7 14.8149 7C18.2241 7 20.9878 9.23858 20.9878 12C20.9878 14.7614 18.2241 17 14.8149 17ZM14.8149 15C16.8604 15 18.5186 13.6569 18.5186 12C18.5186 10.3431 16.8604 9 14.8149 9C12.7694 9 11.1112 10.3431 11.1112 12C11.1112 13.6569 12.7694 15 14.8149 15ZM22.2223 7C22.2223 7.55228 21.6696 8 20.9878 8C20.3059 8 19.7532 7.55228 19.7532 7C19.7532 6.44772 20.3059 6 20.9878 6C21.6696 6 22.2223 6.44772 22.2223 7Z" fill="black"/>
</svg>
