<svg width="27" height="24" viewBox="0 0 27 24" fill="none" xmlns="http://www.w3.org/2000/svg">
<path fill-rule="evenodd" clip-rule="evenodd" d="M17.7778 2H8.8889C5.207 2 2.22223 4.68629 2.22223 8V16C2.22223 19.3137 5.207 22 8.8889 22H17.7778C21.4597 22 24.4445 19.3137 24.4445 16V8C24.4445 4.68629 21.4597 2 17.7778 2ZM4.44445 8C4.44445 5.79086 6.4343 4 8.8889 4H17.7778C20.2324 4 22.2222 5.79086 22.2222 8V16C22.2222 18.2091 20.2324 20 17.7778 20H8.8889C6.4343 20 4.44445 18.2091 4.44445 16V8ZM13.3333 17C10.2651 17 7.77778 14.7614 7.77778 12C7.77778 9.23858 10.2651 7 13.3333 7C16.4016 7 18.8889 9.23858 18.8889 12C18.8889 14.7614 16.4016 17 13.3333 17ZM13.3333 15C15.1743 15 16.6667 13.6569 16.6667 12C16.6667 10.3431 15.1743 9 13.3333 9C11.4924 9 10 10.3431 10 12C10 13.6569 11.4924 15 13.3333 15ZM20 7C20 7.55228 19.5025 8 18.8889 8C18.2752 8 17.7778 7.55228 17.7778 7C17.7778 6.44771 18.2752 6 18.8889 6C19.5025 6 20 6.44771 20 7Z" fill="black"/>
</svg>
