<svg width="24" height="19" viewBox="0 0 24 19" fill="none" xmlns="http://www.w3.org/2000/svg">
<path fill-rule="evenodd" clip-rule="evenodd" d="M21.5525 2.50827L23.1245 2.67349L22.4179 3.948C22.0733 4.56953 21.7283 5.19105 21.3831 5.81258C21.3421 5.94422 21.2702 6.05962 21.1638 6.20987C21.1193 6.27265 20.9674 6.47236 20.9603 6.48194C20.9202 6.53608 20.8905 6.57878 20.8692 6.61299V9.00152C20.8692 15.1135 14.2969 18.9974 8.0903 18.9974C6.82027 18.9974 5.85533 18.9427 4.75042 18.7257C2.93209 18.3685 1.5789 17.6587 0.959675 16.418L0.322161 15.1407L1.87147 15.0124C3.27304 14.8964 4.48825 14.6561 5.42147 14.3343C2.85945 13.9635 1.4237 12.9508 1.4237 11.0489V10.0489H2.53482C2.77894 10.0489 2.99907 10.0311 3.19586 9.99834C1.27304 8.96365 0.309951 7.30379 0.309951 5.00152C0.309741 4.9034 0.309741 4.90339 0.309085 4.79847C0.301862 3.63803 0.371118 3.01797 0.724091 2.22659C0.950308 1.71941 1.27729 1.24988 1.71737 0.819668L2.55583 0L3.37101 0.838468C6.05742 3.60161 8.71298 5.27795 11.4243 5.48072C11.4359 2.93105 13.577 1.00152 16.4245 1.00152C17.752 1.00152 18.9562 1.45501 19.9025 2.27273C20.4204 2.36851 20.9704 2.44709 21.5525 2.50827ZM19.096 4.1625L18.7554 4.09309L18.5201 3.86076C17.9513 3.29904 17.2374 3.00201 16.4245 3.00201C14.799 3.00201 13.6465 4.0444 13.6465 5.50201C13.6465 5.74022 13.6397 5.88991 13.6067 6.08664C13.4751 6.87165 12.9859 7.50201 11.9798 7.50201C8.64867 7.50201 5.64343 5.89591 2.71292 3.15277C2.56184 3.5661 2.52631 3.99096 2.53127 4.78776C2.53194 4.89432 2.53194 4.89432 2.53217 5.00201C2.53217 7.05002 3.45408 8.17026 5.63689 8.79467L6.41143 9.01624V9.74769C6.41143 10.6347 5.47773 11.4696 4.11158 11.8436C4.73783 12.2712 6.0186 12.502 8.0907 12.502H9.20181V13.502C9.20181 14.9347 7.37261 16.0565 4.60943 16.6423C5.51057 16.8908 6.71043 16.9979 8.09031 16.9979C13.2174 16.9979 18.6469 13.7893 18.6469 9.00201V6.50201C18.6469 6.20823 18.7416 5.95322 18.8988 5.68808C18.9602 5.58441 19.0279 5.48558 19.1114 5.37286C19.1271 5.35164 19.1855 5.27475 19.2318 5.21328L19.3198 5.05478C19.4625 4.79794 19.6052 4.5411 19.7478 4.28426C19.5262 4.24648 19.3089 4.2059 19.096 4.1625Z" fill="black"/>
</svg>
