<svg width="269" height="84" viewBox="0 0 269 84" fill="none" xmlns="http://www.w3.org/2000/svg">
<g filter="url(#filter0_d_19_372)">
<path fill-rule="evenodd" clip-rule="evenodd" d="M229.986 68.4437C245.901 68.4437 258.802 55.5423 258.802 39.6276C258.802 23.7129 245.901 10.8115 229.986 10.8115C214.072 10.8115 201.17 23.7129 201.17 39.6276C201.17 55.5423 214.072 68.4437 229.986 68.4437Z" fill="white"/>
</g>
<path d="M242.99 33.787C242.06 34.09 241.07 34.2909 240.038 34.3884C241.1 33.917 241.91 33.1762 242.291 32.2833C241.301 32.7222 240.208 33.0322 239.043 33.2052C238.103 32.461 236.762 32 235.301 32C232.464 32 230.181 33.7115 230.181 35.8096C230.181 36.1115 230.215 36.4018 230.3 36.6782C226.04 36.5237 222.272 35.0061 219.74 32.6944C219.298 33.2645 219.039 33.917 219.039 34.6195C219.039 35.9385 219.952 37.1078 221.314 37.7847C220.491 37.7731 219.684 37.5955 219 37.3156C219 37.3272 219 37.3423 219 37.3574C219 39.2083 220.775 40.7456 223.104 41.0997C222.687 41.1845 222.233 41.2251 221.761 41.2251C221.433 41.2251 221.102 41.2112 220.791 41.1601C221.455 42.6684 223.338 43.7773 225.578 43.8133C223.835 44.8269 221.622 45.4377 219.226 45.4377C218.806 45.4377 218.403 45.4238 218 45.3854C220.269 46.4734 222.959 47.0946 225.859 47.0946C235.287 47.0946 240.441 41.289 240.441 36.2567C240.441 36.0883 240.433 35.9258 240.422 35.7644C241.439 35.2279 242.293 34.558 242.99 33.787Z" fill="#080809"/>
<g filter="url(#filter1_d_19_372)">
<path fill-rule="evenodd" clip-rule="evenodd" d="M38.8161 65.6322C54.7308 65.6322 67.6322 52.7308 67.6322 36.8161C67.6322 20.9014 54.7308 8 38.8161 8C22.9014 8 10 20.9014 10 36.8161C10 52.7308 22.9014 65.6322 38.8161 65.6322Z" fill="white"/>
</g>
<path fill-rule="evenodd" clip-rule="evenodd" d="M42.7805 31.6364C42.3306 31.4941 41.8132 31.3992 41.3408 31.3992C40.7559 31.3992 39.4962 31.8025 39.4962 32.5853V34.4593H42.488V37.6142H39.4962V46.32H36.4819V37.6142H34.9972V34.4593H36.4819V32.8699C36.4819 30.474 37.5166 28.4814 40.0136 28.4814C40.8684 28.4814 42.3981 28.5289 43.2304 28.8373L42.7805 31.6364Z" fill="#080809"/>
<g filter="url(#filter2_d_19_372)">
<path fill-rule="evenodd" clip-rule="evenodd" d="M134.401 71.2549C151.869 71.2549 166.029 57.0948 166.029 39.6274C166.029 22.1601 151.869 8 134.401 8C116.934 8 102.774 22.1601 102.774 39.6274C102.774 57.0948 116.934 71.2549 134.401 71.2549Z" fill="url(#paint0_angular_19_372)"/>
</g>
<g clip-path="url(#clip0_19_372)">
<path d="M143.055 27.6792H127.153C125.337 27.6792 123.859 29.1573 123.859 30.9737V46.8753C123.859 48.6921 125.337 50.1698 127.153 50.1698H143.055C144.872 50.1698 146.35 48.6921 146.35 46.8753V30.9737C146.35 29.1573 144.872 27.6792 143.055 27.6792ZM145.032 46.8753C145.032 47.9651 144.145 48.852 143.055 48.852H127.153C126.064 48.852 125.177 47.9651 125.177 46.8753V30.9737C125.177 29.8839 126.064 28.997 127.153 28.997H143.055C144.145 28.997 145.032 29.8839 145.032 30.9737V46.8753Z" fill="white"/>
<path d="M142.352 30.3589C141.626 30.3589 141.034 30.9501 141.034 31.6767C141.034 32.4032 141.626 32.9945 142.352 32.9945C143.079 32.9945 143.67 32.4032 143.67 31.6767C143.67 30.9501 143.079 30.3589 142.352 30.3589Z" fill="white"/>
<path d="M135.104 32.9941C131.834 32.9941 129.174 35.6544 129.174 38.9243C129.174 42.1942 131.834 44.8544 135.104 44.8544C138.374 44.8544 141.034 42.1942 141.034 38.9243C141.034 35.6544 138.374 32.9941 135.104 32.9941ZM135.104 43.5366C132.561 43.5366 130.492 41.4677 130.492 38.9243C130.492 36.3809 132.561 34.312 135.104 34.312C137.648 34.312 139.717 36.3809 139.717 38.9243C139.717 41.4677 137.648 43.5366 135.104 43.5366Z" fill="white"/>
</g>
<defs>
<filter id="filter0_d_19_372" x="191.17" y="2.81152" width="77.6322" height="77.6323" filterUnits="userSpaceOnUse" color-interpolation-filters="sRGB">
<feFlood flood-opacity="0" result="BackgroundImageFix"/>
<feColorMatrix in="SourceAlpha" type="matrix" values="0 0 0 0 0 0 0 0 0 0 0 0 0 0 0 0 0 0 127 0" result="hardAlpha"/>
<feOffset dy="2"/>
<feGaussianBlur stdDeviation="5"/>
<feColorMatrix type="matrix" values="0 0 0 0 0 0 0 0 0 0 0 0 0 0 0 0 0 0 0.1 0"/>
<feBlend mode="normal" in2="BackgroundImageFix" result="effect1_dropShadow_19_372"/>
<feBlend mode="normal" in="SourceGraphic" in2="effect1_dropShadow_19_372" result="shape"/>
</filter>
<filter id="filter1_d_19_372" x="0" y="0" width="77.6322" height="77.6323" filterUnits="userSpaceOnUse" color-interpolation-filters="sRGB">
<feFlood flood-opacity="0" result="BackgroundImageFix"/>
<feColorMatrix in="SourceAlpha" type="matrix" values="0 0 0 0 0 0 0 0 0 0 0 0 0 0 0 0 0 0 127 0" result="hardAlpha"/>
<feOffset dy="2"/>
<feGaussianBlur stdDeviation="5"/>
<feColorMatrix type="matrix" values="0 0 0 0 0 0 0 0 0 0 0 0 0 0 0 0 0 0 0.1 0"/>
<feBlend mode="normal" in2="BackgroundImageFix" result="effect1_dropShadow_19_372"/>
<feBlend mode="normal" in="SourceGraphic" in2="effect1_dropShadow_19_372" result="shape"/>
</filter>
<filter id="filter2_d_19_372" x="92.7739" y="0" width="83.2549" height="83.2549" filterUnits="userSpaceOnUse" color-interpolation-filters="sRGB">
<feFlood flood-opacity="0" result="BackgroundImageFix"/>
<feColorMatrix in="SourceAlpha" type="matrix" values="0 0 0 0 0 0 0 0 0 0 0 0 0 0 0 0 0 0 127 0" result="hardAlpha"/>
<feOffset dy="2"/>
<feGaussianBlur stdDeviation="5"/>
<feColorMatrix type="matrix" values="0 0 0 0 0 0 0 0 0 0 0 0 0 0 0 0 0 0 0.1 0"/>
<feBlend mode="normal" in2="BackgroundImageFix" result="effect1_dropShadow_19_372"/>
<feBlend mode="normal" in="SourceGraphic" in2="effect1_dropShadow_19_372" result="shape"/>
</filter>
<radialGradient id="paint0_angular_19_372" cx="0" cy="0" r="1" gradientUnits="userSpaceOnUse" gradientTransform="translate(134.401 39.6274) rotate(90) scale(0.702832)">
<stop stop-color="#B8D2F1"/>
<stop offset="0.294597" stop-color="#F289AA"/>
<stop offset="0.294697" stop-color="#C68BF0"/>
<stop offset="0.401042" stop-color="#D164DA"/>
<stop offset="0.614583" stop-color="#C963E8"/>
<stop offset="0.71875" stop-color="#BFC2E8"/>
<stop offset="0.802083" stop-color="#FFC999"/>
<stop offset="0.875" stop-color="#D0D8C9"/>
<stop offset="0.928149" stop-color="#BAD0F1"/>
<stop offset="0.997133" stop-color="#CED8CB"/>
</radialGradient>
<clipPath id="clip0_19_372">
<rect width="22.4906" height="22.4906" fill="white" transform="translate(123.859 27.6792)"/>
</clipPath>
</defs>
</svg>
