<svg width="269" height="84" viewBox="0 0 269 84" fill="none" xmlns="http://www.w3.org/2000/svg">
<g filter="url(#filter0_d_9_344)">
<path fill-rule="evenodd" clip-rule="evenodd" d="M229.986 68.4437C245.901 68.4437 258.802 55.5423 258.802 39.6276C258.802 23.7129 245.901 10.8115 229.986 10.8115C214.071 10.8115 201.17 23.7129 201.17 39.6276C201.17 55.5423 214.071 68.4437 229.986 68.4437Z" fill="white"/>
</g>
<path d="M243.99 36.787C243.06 37.09 242.07 37.2909 241.038 37.3884C242.1 36.917 242.91 36.1762 243.291 35.2833C242.301 35.7222 241.208 36.0322 240.043 36.2052C239.103 35.461 237.762 35 236.301 35C233.464 35 231.181 36.7115 231.181 38.8096C231.181 39.1115 231.215 39.4018 231.3 39.6782C227.04 39.5237 223.272 38.0061 220.74 35.6944C220.298 36.2645 220.039 36.917 220.039 37.6195C220.039 38.9385 220.952 40.1078 222.314 40.7847C221.491 40.7731 220.684 40.5955 220 40.3156C220 40.3272 220 40.3423 220 40.3574C220 42.2083 221.775 43.7456 224.104 44.0997C223.687 44.1845 223.233 44.2251 222.761 44.2251C222.433 44.2251 222.102 44.2112 221.791 44.1601C222.455 45.6684 224.338 46.7773 226.578 46.8133C224.835 47.8269 222.622 48.4377 220.226 48.4377C219.806 48.4377 219.403 48.4238 219 48.3854C221.269 49.4734 223.959 50.0946 226.859 50.0946C236.287 50.0946 241.441 44.289 241.441 39.2567C241.441 39.0883 241.433 38.9258 241.422 38.7644C242.439 38.2279 243.293 37.558 243.99 36.787Z" fill="#080809"/>
<g filter="url(#filter1_d_9_344)">
<path fill-rule="evenodd" clip-rule="evenodd" d="M38.8161 65.6322C54.7308 65.6322 67.6322 52.7308 67.6322 36.8161C67.6322 20.9014 54.7308 8 38.8161 8C22.9014 8 10 20.9014 10 36.8161C10 52.7308 22.9014 65.6322 38.8161 65.6322Z" fill="white"/>
</g>
<path fill-rule="evenodd" clip-rule="evenodd" d="M42.7803 31.6364C42.3304 31.4941 41.8131 31.3992 41.3407 31.3992C40.7558 31.3992 39.4961 31.8025 39.4961 32.5853V34.4593H42.4879V37.6142H39.4961V46.32H36.4817V37.6142H34.9971V34.4593H36.4817V32.8699C36.4817 30.474 37.5165 28.4814 40.0135 28.4814C40.8683 28.4814 42.3979 28.5289 43.2302 28.8373L42.7803 31.6364Z" fill="#080809"/>
<g filter="url(#filter2_d_9_344)">
<path fill-rule="evenodd" clip-rule="evenodd" d="M134.401 71.2549C151.869 71.2549 166.029 57.0948 166.029 39.6274C166.029 22.1601 151.869 8 134.401 8C116.934 8 102.774 22.1601 102.774 39.6274C102.774 57.0948 116.934 71.2549 134.401 71.2549Z" fill="url(#paint0_angular_9_344)"/>
</g>
<g clip-path="url(#clip0_9_344)">
<path d="M143.055 27.6792H127.153C125.337 27.6792 123.859 29.1573 123.859 30.9737V46.8753C123.859 48.6921 125.337 50.1698 127.153 50.1698H143.055C144.872 50.1698 146.35 48.6921 146.35 46.8753V30.9737C146.35 29.1573 144.872 27.6792 143.055 27.6792ZM145.032 46.8753C145.032 47.9651 144.145 48.852 143.055 48.852H127.153C126.064 48.852 125.177 47.9651 125.177 46.8753V30.9737C125.177 29.8839 126.064 28.997 127.153 28.997H143.055C144.145 28.997 145.032 29.8839 145.032 30.9737V46.8753Z" fill="white"/>
<path d="M142.352 30.3586C141.625 30.3586 141.034 30.9499 141.034 31.6765C141.034 32.403 141.625 32.9943 142.352 32.9943C143.079 32.9943 143.67 32.403 143.67 31.6765C143.67 30.9499 143.079 30.3586 142.352 30.3586Z" fill="white"/>
<path d="M135.104 32.9944C131.834 32.9944 129.174 35.6546 129.174 38.9245C129.174 42.1945 131.834 44.8547 135.104 44.8547C138.374 44.8547 141.034 42.1945 141.034 38.9245C141.034 35.6546 138.374 32.9944 135.104 32.9944ZM135.104 43.5369C132.561 43.5369 130.492 41.4679 130.492 38.9245C130.492 36.3812 132.561 34.3122 135.104 34.3122C137.647 34.3122 139.716 36.3812 139.716 38.9245C139.716 41.4679 137.647 43.5369 135.104 43.5369Z" fill="white"/>
</g>
<defs>
<filter id="filter0_d_9_344" x="191.17" y="2.81152" width="77.6323" height="77.6323" filterUnits="userSpaceOnUse" color-interpolation-filters="sRGB">
<feFlood flood-opacity="0" result="BackgroundImageFix"/>
<feColorMatrix in="SourceAlpha" type="matrix" values="0 0 0 0 0 0 0 0 0 0 0 0 0 0 0 0 0 0 127 0" result="hardAlpha"/>
<feOffset dy="2"/>
<feGaussianBlur stdDeviation="5"/>
<feColorMatrix type="matrix" values="0 0 0 0 0 0 0 0 0 0 0 0 0 0 0 0 0 0 0.1 0"/>
<feBlend mode="normal" in2="BackgroundImageFix" result="effect1_dropShadow_9_344"/>
<feBlend mode="normal" in="SourceGraphic" in2="effect1_dropShadow_9_344" result="shape"/>
</filter>
<filter id="filter1_d_9_344" x="0" y="0" width="77.6323" height="77.6323" filterUnits="userSpaceOnUse" color-interpolation-filters="sRGB">
<feFlood flood-opacity="0" result="BackgroundImageFix"/>
<feColorMatrix in="SourceAlpha" type="matrix" values="0 0 0 0 0 0 0 0 0 0 0 0 0 0 0 0 0 0 127 0" result="hardAlpha"/>
<feOffset dy="2"/>
<feGaussianBlur stdDeviation="5"/>
<feColorMatrix type="matrix" values="0 0 0 0 0 0 0 0 0 0 0 0 0 0 0 0 0 0 0.1 0"/>
<feBlend mode="normal" in2="BackgroundImageFix" result="effect1_dropShadow_9_344"/>
<feBlend mode="normal" in="SourceGraphic" in2="effect1_dropShadow_9_344" result="shape"/>
</filter>
<filter id="filter2_d_9_344" x="92.7739" y="0" width="83.2549" height="83.2549" filterUnits="userSpaceOnUse" color-interpolation-filters="sRGB">
<feFlood flood-opacity="0" result="BackgroundImageFix"/>
<feColorMatrix in="SourceAlpha" type="matrix" values="0 0 0 0 0 0 0 0 0 0 0 0 0 0 0 0 0 0 127 0" result="hardAlpha"/>
<feOffset dy="2"/>
<feGaussianBlur stdDeviation="5"/>
<feColorMatrix type="matrix" values="0 0 0 0 0 0 0 0 0 0 0 0 0 0 0 0 0 0 0.1 0"/>
<feBlend mode="normal" in2="BackgroundImageFix" result="effect1_dropShadow_9_344"/>
<feBlend mode="normal" in="SourceGraphic" in2="effect1_dropShadow_9_344" result="shape"/>
</filter>
<radialGradient id="paint0_angular_9_344" cx="0" cy="0" r="1" gradientUnits="userSpaceOnUse" gradientTransform="translate(134.401 39.6274) rotate(90) scale(0.702832)">
<stop stop-color="#B8D2F1"/>
<stop offset="0.294597" stop-color="#F289AA"/>
<stop offset="0.294697" stop-color="#C68BF0"/>
<stop offset="0.401042" stop-color="#D164DA"/>
<stop offset="0.614583" stop-color="#C963E8"/>
<stop offset="0.71875" stop-color="#BFC2E8"/>
<stop offset="0.802083" stop-color="#FFC999"/>
<stop offset="0.875" stop-color="#D0D8C9"/>
<stop offset="0.928149" stop-color="#BAD0F1"/>
<stop offset="0.997133" stop-color="#CED8CB"/>
</radialGradient>
<clipPath id="clip0_9_344">
<rect width="22.4906" height="22.4906" fill="white" transform="translate(123.859 27.6792)"/>
</clipPath>
</defs>
</svg>
