<svg width="269" height="84" viewBox="0 0 269 84" fill="none" xmlns="http://www.w3.org/2000/svg">
<g filter="url(#filter0_d_9_306)">
<path fill-rule="evenodd" clip-rule="evenodd" d="M229.986 68.4437C245.901 68.4437 258.802 55.5423 258.802 39.6276C258.802 23.7129 245.901 10.8115 229.986 10.8115C214.072 10.8115 201.17 23.7129 201.17 39.6276C201.17 55.5423 214.072 68.4437 229.986 68.4437Z" fill="white"/>
</g>
<g filter="url(#filter1_d_9_306)">
<path fill-rule="evenodd" clip-rule="evenodd" d="M38.8161 65.6322C54.7308 65.6322 67.6322 52.7308 67.6322 36.8161C67.6322 20.9014 54.7308 8 38.8161 8C22.9014 8 10 20.9014 10 36.8161C10 52.7308 22.9014 65.6322 38.8161 65.6322Z" fill="white"/>
</g>
<path fill-rule="evenodd" clip-rule="evenodd" d="M42.7805 31.6364C42.3306 31.4941 41.8132 31.3992 41.3408 31.3992C40.7559 31.3992 39.4962 31.8025 39.4962 32.5853V34.4593H42.488V37.6142H39.4962V46.32H36.4819V37.6142H34.9972V34.4593H36.4819V32.8699C36.4819 30.474 37.5166 28.4814 40.0136 28.4814C40.8684 28.4814 42.3981 28.5289 43.2304 28.8373L42.7805 31.6364Z" fill="#080809"/>
<g filter="url(#filter2_d_9_306)">
<path fill-rule="evenodd" clip-rule="evenodd" d="M134.401 71.2549C151.869 71.2549 166.029 57.0948 166.029 39.6274C166.029 22.1601 151.869 8 134.401 8C116.934 8 102.774 22.1601 102.774 39.6274C102.774 57.0948 116.934 71.2549 134.401 71.2549Z" fill="url(#paint0_angular_9_306)"/>
</g>
<g clip-path="url(#clip0_9_306)">
<path d="M143.055 27.6792H127.153C125.337 27.6792 123.859 29.1573 123.859 30.9737V46.8753C123.859 48.6921 125.337 50.1698 127.153 50.1698H143.055C144.872 50.1698 146.35 48.6921 146.35 46.8753V30.9737C146.35 29.1573 144.872 27.6792 143.055 27.6792ZM145.032 46.8753C145.032 47.9651 144.145 48.852 143.055 48.852H127.153C126.064 48.852 125.177 47.9651 125.177 46.8753V30.9737C125.177 29.8839 126.064 28.997 127.153 28.997H143.055C144.145 28.997 145.032 29.8839 145.032 30.9737V46.8753Z" fill="white"/>
<path d="M142.352 30.3586C141.626 30.3586 141.034 30.9499 141.034 31.6765C141.034 32.403 141.626 32.9943 142.352 32.9943C143.079 32.9943 143.67 32.403 143.67 31.6765C143.67 30.9499 143.079 30.3586 142.352 30.3586Z" fill="white"/>
<path d="M135.104 32.9944C131.834 32.9944 129.174 35.6546 129.174 38.9245C129.174 42.1945 131.834 44.8547 135.104 44.8547C138.374 44.8547 141.034 42.1945 141.034 38.9245C141.034 35.6546 138.374 32.9944 135.104 32.9944ZM135.104 43.5369C132.561 43.5369 130.492 41.4679 130.492 38.9245C130.492 36.3812 132.561 34.3122 135.104 34.3122C137.648 34.3122 139.717 36.3812 139.717 38.9245C139.717 41.4679 137.648 43.5369 135.104 43.5369Z" fill="white"/>
</g>
<defs>
<filter id="filter0_d_9_306" x="191.17" y="2.81152" width="77.6322" height="77.6323" filterUnits="userSpaceOnUse" color-interpolation-filters="sRGB">
<feFlood flood-opacity="0" result="BackgroundImageFix"/>
<feColorMatrix in="SourceAlpha" type="matrix" values="0 0 0 0 0 0 0 0 0 0 0 0 0 0 0 0 0 0 127 0" result="hardAlpha"/>
<feOffset dy="2"/>
<feGaussianBlur stdDeviation="5"/>
<feColorMatrix type="matrix" values="0 0 0 0 0 0 0 0 0 0 0 0 0 0 0 0 0 0 0.1 0"/>
<feBlend mode="normal" in2="BackgroundImageFix" result="effect1_dropShadow_9_306"/>
<feBlend mode="normal" in="SourceGraphic" in2="effect1_dropShadow_9_306" result="shape"/>
</filter>
<filter id="filter1_d_9_306" x="0" y="0" width="77.6322" height="77.6323" filterUnits="userSpaceOnUse" color-interpolation-filters="sRGB">
<feFlood flood-opacity="0" result="BackgroundImageFix"/>
<feColorMatrix in="SourceAlpha" type="matrix" values="0 0 0 0 0 0 0 0 0 0 0 0 0 0 0 0 0 0 127 0" result="hardAlpha"/>
<feOffset dy="2"/>
<feGaussianBlur stdDeviation="5"/>
<feColorMatrix type="matrix" values="0 0 0 0 0 0 0 0 0 0 0 0 0 0 0 0 0 0 0.1 0"/>
<feBlend mode="normal" in2="BackgroundImageFix" result="effect1_dropShadow_9_306"/>
<feBlend mode="normal" in="SourceGraphic" in2="effect1_dropShadow_9_306" result="shape"/>
</filter>
<filter id="filter2_d_9_306" x="92.7739" y="0" width="83.2549" height="83.2549" filterUnits="userSpaceOnUse" color-interpolation-filters="sRGB">
<feFlood flood-opacity="0" result="BackgroundImageFix"/>
<feColorMatrix in="SourceAlpha" type="matrix" values="0 0 0 0 0 0 0 0 0 0 0 0 0 0 0 0 0 0 127 0" result="hardAlpha"/>
<feOffset dy="2"/>
<feGaussianBlur stdDeviation="5"/>
<feColorMatrix type="matrix" values="0 0 0 0 0 0 0 0 0 0 0 0 0 0 0 0 0 0 0.1 0"/>
<feBlend mode="normal" in2="BackgroundImageFix" result="effect1_dropShadow_9_306"/>
<feBlend mode="normal" in="SourceGraphic" in2="effect1_dropShadow_9_306" result="shape"/>
</filter>
<radialGradient id="paint0_angular_9_306" cx="0" cy="0" r="1" gradientUnits="userSpaceOnUse" gradientTransform="translate(134.401 39.6274) rotate(90) scale(0.702832)">
<stop stop-color="#B8D2F1"/>
<stop offset="0.294597" stop-color="#F289AA"/>
<stop offset="0.294697" stop-color="#C68BF0"/>
<stop offset="0.401042" stop-color="#D164DA"/>
<stop offset="0.614583" stop-color="#C963E8"/>
<stop offset="0.71875" stop-color="#BFC2E8"/>
<stop offset="0.802083" stop-color="#FFC999"/>
<stop offset="0.875" stop-color="#D0D8C9"/>
<stop offset="0.928149" stop-color="#BAD0F1"/>
<stop offset="0.997133" stop-color="#CED8CB"/>
</radialGradient>
<clipPath id="clip0_9_306">
<rect width="22.4906" height="22.4906" fill="white" transform="translate(123.859 27.6792)"/>
</clipPath>
</defs>
</svg>
