<svg width="269" height="84" viewBox="0 0 269 84" fill="none" xmlns="http://www.w3.org/2000/svg">
<g filter="url(#filter0_d_9_385)">
<path fill-rule="evenodd" clip-rule="evenodd" d="M229.986 68.4437C245.901 68.4437 258.802 55.5423 258.802 39.6276C258.802 23.7129 245.901 10.8115 229.986 10.8115C214.071 10.8115 201.17 23.7129 201.17 39.6276C201.17 55.5423 214.071 68.4437 229.986 68.4437Z" fill="white"/>
</g>
<path d="M242.99 34.787C242.06 35.09 241.07 35.2909 240.038 35.3884C241.1 34.917 241.91 34.1762 242.291 33.2833C241.301 33.7222 240.208 34.0322 239.043 34.2052C238.103 33.461 236.762 33 235.301 33C232.464 33 230.181 34.7115 230.181 36.8096C230.181 37.1115 230.215 37.4018 230.3 37.6782C226.04 37.5237 222.272 36.0061 219.74 33.6944C219.298 34.2645 219.039 34.917 219.039 35.6195C219.039 36.9385 219.952 38.1078 221.314 38.7847C220.491 38.7731 219.684 38.5955 219 38.3156C219 38.3272 219 38.3423 219 38.3574C219 40.2083 220.775 41.7456 223.104 42.0997C222.687 42.1845 222.233 42.2251 221.761 42.2251C221.433 42.2251 221.102 42.2112 220.791 42.1601C221.455 43.6684 223.338 44.7773 225.578 44.8133C223.835 45.8269 221.622 46.4377 219.226 46.4377C218.806 46.4377 218.403 46.4238 218 46.3854C220.269 47.4734 222.959 48.0946 225.859 48.0946C235.287 48.0946 240.441 42.289 240.441 37.2567C240.441 37.0883 240.433 36.9258 240.422 36.7644C241.439 36.2279 242.293 35.558 242.99 34.787Z" fill="#080809"/>
<g filter="url(#filter1_d_9_385)">
<path fill-rule="evenodd" clip-rule="evenodd" d="M38.8161 65.6322C54.7308 65.6322 67.6322 52.7308 67.6322 36.8161C67.6322 20.9014 54.7308 8 38.8161 8C22.9014 8 10 20.9014 10 36.8161C10 52.7308 22.9014 65.6322 38.8161 65.6322Z" fill="white"/>
</g>
<path fill-rule="evenodd" clip-rule="evenodd" d="M42.7803 31.6364C42.3304 31.4941 41.8131 31.3992 41.3407 31.3992C40.7558 31.3992 39.4961 31.8025 39.4961 32.5853V34.4593H42.4879V37.6142H39.4961V46.32H36.4817V37.6142H34.9971V34.4593H36.4817V32.8699C36.4817 30.474 37.5165 28.4814 40.0135 28.4814C40.8683 28.4814 42.3979 28.5289 43.2302 28.8373L42.7803 31.6364Z" fill="#080809"/>
<g filter="url(#filter2_d_9_385)">
<path fill-rule="evenodd" clip-rule="evenodd" d="M134.401 71.2549C151.869 71.2549 166.029 57.0948 166.029 39.6274C166.029 22.1601 151.869 8 134.401 8C116.934 8 102.774 22.1601 102.774 39.6274C102.774 57.0948 116.934 71.2549 134.401 71.2549Z" fill="url(#paint0_angular_9_385)"/>
</g>
<g clip-path="url(#clip0_9_385)">
<path d="M143.055 27.6792H127.153C125.337 27.6792 123.859 29.1573 123.859 30.9737V46.8753C123.859 48.6921 125.337 50.1698 127.153 50.1698H143.055C144.872 50.1698 146.35 48.6921 146.35 46.8753V30.9737C146.35 29.1573 144.872 27.6792 143.055 27.6792ZM145.032 46.8753C145.032 47.9651 144.145 48.852 143.055 48.852H127.153C126.064 48.852 125.177 47.9651 125.177 46.8753V30.9737C125.177 29.8839 126.064 28.997 127.153 28.997H143.055C144.145 28.997 145.032 29.8839 145.032 30.9737V46.8753Z" fill="white"/>
<path d="M142.352 30.3586C141.625 30.3586 141.034 30.9499 141.034 31.6765C141.034 32.403 141.625 32.9943 142.352 32.9943C143.079 32.9943 143.67 32.403 143.67 31.6765C143.67 30.9499 143.079 30.3586 142.352 30.3586Z" fill="white"/>
<path d="M135.104 32.9944C131.834 32.9944 129.174 35.6546 129.174 38.9245C129.174 42.1945 131.834 44.8547 135.104 44.8547C138.374 44.8547 141.034 42.1945 141.034 38.9245C141.034 35.6546 138.374 32.9944 135.104 32.9944ZM135.104 43.5369C132.561 43.5369 130.492 41.4679 130.492 38.9245C130.492 36.3812 132.561 34.3122 135.104 34.3122C137.647 34.3122 139.716 36.3812 139.716 38.9245C139.716 41.4679 137.647 43.5369 135.104 43.5369Z" fill="white"/>
</g>
<defs>
<filter id="filter0_d_9_385" x="191.17" y="2.81152" width="77.6323" height="77.6323" filterUnits="userSpaceOnUse" color-interpolation-filters="sRGB">
<feFlood flood-opacity="0" result="BackgroundImageFix"/>
<feColorMatrix in="SourceAlpha" type="matrix" values="0 0 0 0 0 0 0 0 0 0 0 0 0 0 0 0 0 0 127 0" result="hardAlpha"/>
<feOffset dy="2"/>
<feGaussianBlur stdDeviation="5"/>
<feColorMatrix type="matrix" values="0 0 0 0 0 0 0 0 0 0 0 0 0 0 0 0 0 0 0.1 0"/>
<feBlend mode="normal" in2="BackgroundImageFix" result="effect1_dropShadow_9_385"/>
<feBlend mode="normal" in="SourceGraphic" in2="effect1_dropShadow_9_385" result="shape"/>
</filter>
<filter id="filter1_d_9_385" x="0" y="0" width="77.6323" height="77.6323" filterUnits="userSpaceOnUse" color-interpolation-filters="sRGB">
<feFlood flood-opacity="0" result="BackgroundImageFix"/>
<feColorMatrix in="SourceAlpha" type="matrix" values="0 0 0 0 0 0 0 0 0 0 0 0 0 0 0 0 0 0 127 0" result="hardAlpha"/>
<feOffset dy="2"/>
<feGaussianBlur stdDeviation="5"/>
<feColorMatrix type="matrix" values="0 0 0 0 0 0 0 0 0 0 0 0 0 0 0 0 0 0 0.1 0"/>
<feBlend mode="normal" in2="BackgroundImageFix" result="effect1_dropShadow_9_385"/>
<feBlend mode="normal" in="SourceGraphic" in2="effect1_dropShadow_9_385" result="shape"/>
</filter>
<filter id="filter2_d_9_385" x="92.7739" y="0" width="83.2549" height="83.2549" filterUnits="userSpaceOnUse" color-interpolation-filters="sRGB">
<feFlood flood-opacity="0" result="BackgroundImageFix"/>
<feColorMatrix in="SourceAlpha" type="matrix" values="0 0 0 0 0 0 0 0 0 0 0 0 0 0 0 0 0 0 127 0" result="hardAlpha"/>
<feOffset dy="2"/>
<feGaussianBlur stdDeviation="5"/>
<feColorMatrix type="matrix" values="0 0 0 0 0 0 0 0 0 0 0 0 0 0 0 0 0 0 0.1 0"/>
<feBlend mode="normal" in2="BackgroundImageFix" result="effect1_dropShadow_9_385"/>
<feBlend mode="normal" in="SourceGraphic" in2="effect1_dropShadow_9_385" result="shape"/>
</filter>
<radialGradient id="paint0_angular_9_385" cx="0" cy="0" r="1" gradientUnits="userSpaceOnUse" gradientTransform="translate(134.401 39.6274) rotate(90) scale(0.702832)">
<stop stop-color="#B8D2F1"/>
<stop offset="0.294597" stop-color="#F289AA"/>
<stop offset="0.294697" stop-color="#C68BF0"/>
<stop offset="0.401042" stop-color="#D164DA"/>
<stop offset="0.614583" stop-color="#C963E8"/>
<stop offset="0.71875" stop-color="#BFC2E8"/>
<stop offset="0.802083" stop-color="#FFC999"/>
<stop offset="0.875" stop-color="#D0D8C9"/>
<stop offset="0.928149" stop-color="#BAD0F1"/>
<stop offset="0.997133" stop-color="#CED8CB"/>
</radialGradient>
<clipPath id="clip0_9_385">
<rect width="22.4906" height="22.4906" fill="white" transform="translate(123.859 27.6792)"/>
</clipPath>
</defs>
</svg>
