<svg width="269" height="84" viewBox="0 0 269 84" fill="none" xmlns="http://www.w3.org/2000/svg">
<g filter="url(#filter0_d_123_175)">
<path fill-rule="evenodd" clip-rule="evenodd" d="M229.986 68.4437C245.901 68.4437 258.802 55.5423 258.802 39.6276C258.802 23.7129 245.901 10.8115 229.986 10.8115C214.071 10.8115 201.17 23.7129 201.17 39.6276C201.17 55.5423 214.071 68.4437 229.986 68.4437Z" fill="white"/>
</g>
<path d="M242.99 30.787C242.06 31.09 241.07 31.2909 240.038 31.3884C241.1 30.917 241.91 30.1762 242.291 29.2833C241.301 29.7222 240.208 30.0322 239.043 30.2052C238.103 29.461 236.762 29 235.301 29C232.464 29 230.181 30.7115 230.181 32.8096C230.181 33.1115 230.215 33.4018 230.3 33.6782C226.04 33.5237 222.272 32.0061 219.74 29.6944C219.298 30.2645 219.039 30.917 219.039 31.6195C219.039 32.9385 219.952 34.1078 221.314 34.7847C220.491 34.7731 219.684 34.5955 219 34.3156C219 34.3272 219 34.3423 219 34.3574C219 36.2083 220.775 37.7456 223.104 38.0997C222.687 38.1845 222.233 38.2251 221.761 38.2251C221.433 38.2251 221.102 38.2112 220.791 38.1601C221.455 39.6684 223.338 40.7773 225.578 40.8133C223.835 41.8269 221.622 42.4377 219.226 42.4377C218.806 42.4377 218.403 42.4238 218 42.3854C220.269 43.4734 222.959 44.0946 225.859 44.0946C235.287 44.0946 240.441 38.289 240.441 33.2567C240.441 33.0883 240.433 32.9258 240.422 32.7644C241.439 32.2279 242.293 31.558 242.99 30.787Z" fill="#080809"/>
<g filter="url(#filter1_d_123_175)">
<path fill-rule="evenodd" clip-rule="evenodd" d="M38.8161 65.6322C54.7308 65.6322 67.6322 52.7308 67.6322 36.8161C67.6322 20.9014 54.7308 8 38.8161 8C22.9014 8 10 20.9014 10 36.8161C10 52.7308 22.9014 65.6322 38.8161 65.6322Z" fill="white"/>
</g>
<path fill-rule="evenodd" clip-rule="evenodd" d="M42.7813 31.6364C42.3314 31.4941 41.814 31.3992 41.3416 31.3992C40.7568 31.3992 39.497 31.8025 39.497 32.5853V34.4593H42.4889V37.6142H39.497V46.32H36.4827V37.6142H34.998V34.4593H36.4827V32.8699C36.4827 30.474 37.5175 28.4814 40.0144 28.4814C40.8692 28.4814 42.3989 28.5289 43.2312 28.8373L42.7813 31.6364Z" fill="#080809"/>
<g filter="url(#filter2_d_123_175)">
<path fill-rule="evenodd" clip-rule="evenodd" d="M134.401 71.2549C151.868 71.2549 166.028 57.0948 166.028 39.6274C166.028 22.1601 151.868 8 134.401 8C116.934 8 102.773 22.1601 102.773 39.6274C102.773 57.0948 116.934 71.2549 134.401 71.2549Z" fill="url(#paint0_angular_123_175)"/>
</g>
<g clip-path="url(#clip0_123_175)">
<path d="M143.054 27.6792H127.152C125.336 27.6792 123.857 29.1573 123.857 30.9737V46.8753C123.857 48.6921 125.336 50.1698 127.152 50.1698H143.054C144.87 50.1698 146.348 48.6921 146.348 46.8753V30.9737C146.348 29.1573 144.87 27.6792 143.054 27.6792ZM145.03 46.8753C145.03 47.9651 144.143 48.852 143.054 48.852H127.152C126.062 48.852 125.175 47.9651 125.175 46.8753V30.9737C125.175 29.8839 126.062 28.997 127.152 28.997H143.054C144.143 28.997 145.03 29.8839 145.03 30.9737V46.8753Z" fill="white"/>
<path d="M142.351 30.3588C141.624 30.3588 141.033 30.95 141.033 31.6766C141.033 32.4031 141.624 32.9944 142.351 32.9944C143.078 32.9944 143.669 32.4031 143.669 31.6766C143.669 30.95 143.078 30.3588 142.351 30.3588Z" fill="white"/>
<path d="M135.102 32.9944C131.832 32.9944 129.172 35.6546 129.172 38.9245C129.172 42.1945 131.832 44.8547 135.102 44.8547C138.372 44.8547 141.032 42.1945 141.032 38.9245C141.032 35.6546 138.372 32.9944 135.102 32.9944ZM135.102 43.5369C132.559 43.5369 130.49 41.4679 130.49 38.9245C130.49 36.3812 132.559 34.3122 135.102 34.3122C137.645 34.3122 139.714 36.3812 139.714 38.9245C139.714 41.4679 137.645 43.5369 135.102 43.5369Z" fill="white"/>
</g>
<defs>
<filter id="filter0_d_123_175" x="191.17" y="2.81152" width="77.6328" height="77.6322" filterUnits="userSpaceOnUse" color-interpolation-filters="sRGB">
<feFlood flood-opacity="0" result="BackgroundImageFix"/>
<feColorMatrix in="SourceAlpha" type="matrix" values="0 0 0 0 0 0 0 0 0 0 0 0 0 0 0 0 0 0 127 0" result="hardAlpha"/>
<feOffset dy="2"/>
<feGaussianBlur stdDeviation="5"/>
<feColorMatrix type="matrix" values="0 0 0 0 0 0 0 0 0 0 0 0 0 0 0 0 0 0 0.1 0"/>
<feBlend mode="normal" in2="BackgroundImageFix" result="effect1_dropShadow_123_175"/>
<feBlend mode="normal" in="SourceGraphic" in2="effect1_dropShadow_123_175" result="shape"/>
</filter>
<filter id="filter1_d_123_175" x="0" y="0" width="77.6328" height="77.6322" filterUnits="userSpaceOnUse" color-interpolation-filters="sRGB">
<feFlood flood-opacity="0" result="BackgroundImageFix"/>
<feColorMatrix in="SourceAlpha" type="matrix" values="0 0 0 0 0 0 0 0 0 0 0 0 0 0 0 0 0 0 127 0" result="hardAlpha"/>
<feOffset dy="2"/>
<feGaussianBlur stdDeviation="5"/>
<feColorMatrix type="matrix" values="0 0 0 0 0 0 0 0 0 0 0 0 0 0 0 0 0 0 0.1 0"/>
<feBlend mode="normal" in2="BackgroundImageFix" result="effect1_dropShadow_123_175"/>
<feBlend mode="normal" in="SourceGraphic" in2="effect1_dropShadow_123_175" result="shape"/>
</filter>
<filter id="filter2_d_123_175" x="92.7734" y="0" width="83.2539" height="83.2549" filterUnits="userSpaceOnUse" color-interpolation-filters="sRGB">
<feFlood flood-opacity="0" result="BackgroundImageFix"/>
<feColorMatrix in="SourceAlpha" type="matrix" values="0 0 0 0 0 0 0 0 0 0 0 0 0 0 0 0 0 0 127 0" result="hardAlpha"/>
<feOffset dy="2"/>
<feGaussianBlur stdDeviation="5"/>
<feColorMatrix type="matrix" values="0 0 0 0 0 0 0 0 0 0 0 0 0 0 0 0 0 0 0.1 0"/>
<feBlend mode="normal" in2="BackgroundImageFix" result="effect1_dropShadow_123_175"/>
<feBlend mode="normal" in="SourceGraphic" in2="effect1_dropShadow_123_175" result="shape"/>
</filter>
<radialGradient id="paint0_angular_123_175" cx="0" cy="0" r="1" gradientUnits="userSpaceOnUse" gradientTransform="translate(134.401 39.6274) rotate(90) scale(0.702832)">
<stop stop-color="#B8D2F1"/>
<stop offset="0.294597" stop-color="#F289AA"/>
<stop offset="0.294697" stop-color="#C68BF0"/>
<stop offset="0.401042" stop-color="#D164DA"/>
<stop offset="0.614583" stop-color="#C963E8"/>
<stop offset="0.71875" stop-color="#BFC2E8"/>
<stop offset="0.802083" stop-color="#FFC999"/>
<stop offset="0.875" stop-color="#D0D8C9"/>
<stop offset="0.928149" stop-color="#BAD0F1"/>
<stop offset="0.997133" stop-color="#CED8CB"/>
</radialGradient>
<clipPath id="clip0_123_175">
<rect width="22.4906" height="22.4906" fill="white" transform="translate(123.857 27.6792)"/>
</clipPath>
</defs>
</svg>
