<svg width="23" height="19" viewBox="0 0 23 19" fill="none" xmlns="http://www.w3.org/2000/svg">
<path fill-rule="evenodd" clip-rule="evenodd" d="M21.2439 2.50827L22.8159 2.67349L22.1093 3.948C21.7647 4.56953 21.4198 5.19105 21.0745 5.81258C21.0335 5.94422 20.9616 6.05962 20.8552 6.20987C20.8107 6.27265 20.6588 6.47236 20.6517 6.48194C20.6116 6.53608 20.5819 6.57878 20.5606 6.61299V9.00152C20.5606 15.1135 13.9884 18.9974 7.78171 18.9974C6.51168 18.9974 5.54674 18.9427 4.44183 18.7257C2.6235 18.3685 1.2703 17.6587 0.651081 16.418L0.0135674 15.1407L1.56288 15.0124C2.96445 14.8964 4.17965 14.6561 5.11287 14.3343C2.55085 13.9635 1.11511 12.9508 1.11511 11.0489V10.0489H2.22622C2.47035 10.0489 2.69047 10.0311 2.88727 9.99834C0.964445 8.96365 0.00135751 7.30379 0.00135751 5.00152C0.0011474 4.9034 0.0011474 4.90339 0.000491723 4.79847C-0.00673174 3.63803 0.0625246 3.01797 0.415498 2.22659C0.641715 1.71941 0.968701 1.24988 1.40878 0.819668L2.24723 0L3.06242 0.838468C5.74882 3.60161 8.40439 5.27795 11.1157 5.48072C11.1273 2.93105 13.2684 1.00152 16.1159 1.00152C17.4434 1.00152 18.6476 1.45501 19.5939 2.27273C20.1118 2.36851 20.6618 2.44709 21.2439 2.50827ZM18.7874 4.1625L18.4467 4.09309L18.2115 3.86076C17.6427 3.29904 16.9288 3.00201 16.1159 3.00201C14.4904 3.00201 13.3379 4.0444 13.3379 5.50201C13.3379 5.74022 13.3311 5.88991 13.2981 6.08664C13.1665 6.87165 12.6773 7.50201 11.6712 7.50201C8.34006 7.50201 5.33483 5.89591 2.40431 3.15277C2.25324 3.5661 2.21771 3.99096 2.22267 4.78776C2.22333 4.89432 2.22333 4.89432 2.22357 5.00201C2.22357 7.05002 3.14547 8.17026 5.32828 8.79467L6.10282 9.01624V9.74769C6.10282 10.6347 5.16912 11.4696 3.80297 11.8436C4.42922 12.2712 5.70999 12.502 7.78209 12.502H8.8932V13.502C8.8932 14.9347 7.06401 16.0565 4.30082 16.6423C5.20197 16.8908 6.40183 16.9979 7.7817 16.9979C12.9088 16.9979 18.3383 13.7893 18.3383 9.00201V6.50201C18.3383 6.20823 18.433 5.95322 18.5902 5.68808C18.6516 5.58441 18.7193 5.48558 18.8028 5.37286C18.8185 5.35164 18.8769 5.27475 18.9232 5.21328L19.0112 5.05478C19.1539 4.79794 19.2966 4.5411 19.4392 4.28426C19.2176 4.24648 19.0003 4.2059 18.7874 4.1625Z" fill="black"/>
</svg>
