<svg width="30" height="18" viewBox="0 0 30 18" fill="none" xmlns="http://www.w3.org/2000/svg">
<path d="M29.5 2.96273C28.4257 3.30404 27.2809 3.53027 26.0875 3.64012C27.3153 3.1092 28.2523 2.27489 28.6929 1.26927C27.5482 1.76358 26.2843 2.11273 24.9373 2.30758C23.8504 1.46935 22.3012 0.950195 20.6112 0.950195C17.3323 0.950195 14.6926 2.87773 14.6926 5.24073C14.6926 5.58073 14.7323 5.90766 14.8298 6.21889C9.90608 6.04496 5.54928 4.33581 2.62247 1.7322C2.1115 2.37427 1.81178 3.1092 1.81178 3.90035C1.81178 5.38589 2.86803 6.70273 4.44247 7.46512C3.49095 7.45204 2.55747 7.25196 1.76664 6.93681C1.76664 6.94989 1.76664 6.96689 1.76664 6.98389C1.76664 9.06835 3.81956 10.7997 6.51164 11.1986C6.02956 11.294 5.50414 11.3398 4.95886 11.3398C4.5797 11.3398 4.19692 11.3241 3.83761 11.2666C4.60497 12.9653 6.78247 14.2141 9.37164 14.2547C7.35664 15.3963 4.79817 16.0841 2.02845 16.0841C1.54275 16.0841 1.07692 16.0684 0.611084 16.0253C3.23456 17.2506 6.34372 17.9502 9.69664 17.9502C20.595 17.9502 26.5533 11.4117 26.5533 5.74419C26.5533 5.55458 26.5443 5.3715 26.5316 5.18973C27.7071 4.58558 28.6947 3.83104 29.5 2.96273Z" fill="#080809"/>
</svg>
