<svg width="52" height="28" viewBox="0 0 52 28" fill="none" xmlns="http://www.w3.org/2000/svg">
<path d="M49.2857 10.9036C49.7698 10.9036 50.2341 10.76 50.5765 10.5044C50.9188 10.2488 51.1111 9.90215 51.1111 9.54067V2.72591C51.1111 2.00295 50.7265 1.30961 50.0418 0.7984C49.3572 0.287193 48.4286 0 47.4603 0H3.65079C2.68254 0 1.75395 0.287193 1.06929 0.7984C0.384636 1.30961 0 2.00295 0 2.72591V9.54067C0 9.90215 0.192318 10.2488 0.534646 10.5044C0.876975 10.76 1.34127 10.9036 1.8254 10.9036C2.79365 10.9036 3.72224 11.1908 4.4069 11.702C5.09155 12.2132 5.47619 12.9066 5.47619 13.6295C5.47619 14.3525 5.09155 15.0458 4.4069 15.557C3.72224 16.0682 2.79365 16.3554 1.8254 16.3554C1.34127 16.3554 0.876975 16.499 0.534646 16.7546C0.192318 17.0102 0 17.3569 0 17.7184V24.5332C0 25.2561 0.384636 25.9495 1.06929 26.4607C1.75395 26.9719 2.68254 27.2591 3.65079 27.2591H47.4603C48.4286 27.2591 49.3572 26.9719 50.0418 26.4607C50.7265 25.9495 51.1111 25.2561 51.1111 24.5332V17.7184C51.1111 17.3569 50.9188 17.0102 50.5765 16.7546C50.2341 16.499 49.7698 16.3554 49.2857 16.3554C48.3175 16.3554 47.3889 16.0682 46.7042 15.557C46.0196 15.0458 45.6349 14.3525 45.6349 13.6295C45.6349 12.9066 46.0196 12.2132 46.7042 11.702C47.3889 11.1908 48.3175 10.9036 49.2857 10.9036V10.9036ZM47.4603 18.9042V24.5332H34.6825V20.4443H31.0317V24.5332H3.65079V18.9042C5.21333 18.5992 6.59637 17.9161 7.58347 16.9617C8.57057 16.0073 9.10602 14.8354 9.10602 13.6295C9.10602 12.4237 8.57057 11.2518 7.58347 10.2974C6.59637 9.34297 5.21333 8.65984 3.65079 8.3549V2.72591H31.0317V6.81477H34.6825V2.72591H47.4603V8.3549C45.8978 8.65984 44.5147 9.34297 43.5276 10.2974C42.5405 11.2518 42.0051 12.4237 42.0051 13.6295C42.0051 14.8354 42.5405 16.0073 43.5276 16.9617C44.5147 17.9161 45.8978 18.5992 47.4603 18.9042V18.9042Z" fill="black"/>
</svg>
